<svg width="940" height="710" viewBox="0 0 940 710" xmlns="http://www.w3.org/2000/svg" xmlns:xlink="http://www.w3.org/1999/xlink"><defs><linearGradient x1="51.785%" y1="1.785%" x2="51.785%" y2="98.215%" id="a"><stop stop-color="#2ACCCC" offset="0%"/><stop stop-color="#2AB7CC" offset="100%"/></linearGradient><linearGradient x1="66.279%" y1="50%" y2="50%" id="c"><stop stop-color="#FFF" stop-opacity="0" offset="0%"/><stop stop-color="#FFF" offset="100%"/></linearGradient><path id="b" d="M0 0h748v81H0z"/><path id="d" d="M18.071 17l-9.9 9.9L11 29.727 23.728 17 11 4.272 8.172 7.101z"/><path id="f" d="M18.071 17l-9.9 9.9L11 29.727 23.728 17 11 4.272 8.172 7.101z"/><path id="h" d="M18.071 17l-9.9 9.9L11 29.727 23.728 17 11 4.272 8.172 7.101z"/><path id="j" d="M18.071 17l-9.9 9.9L11 29.727 23.728 17 11 4.272 8.172 7.101z"/><path id="l" d="M18.071 17l-9.9 9.9L11 29.727 23.728 17 11 4.272 8.172 7.101z"/><path id="n" d="M18.071 17l-9.9 9.9L11 29.727 23.728 17 11 4.272 8.172 7.101z"/><path id="p" d="M18.071 17l-9.9 9.9L11 29.727 23.728 17 11 4.272 8.172 7.101z"/><path id="r" d="M18.071 17l-9.9 9.9L11 29.727 23.728 17 11 4.272 8.172 7.101z"/><filter x="-12.7%" y="-20.9%" width="125.5%" height="141.7%" filterUnits="objectBoundingBox" id="t"><feGaussianBlur stdDeviation="10.363" in="SourceGraphic"/></filter><linearGradient x1="56.28%" y1="29.685%" x2="-43.4%" y2="124.223%" id="u"><stop stop-color="#E8EBFB" offset="0%"/><stop stop-color="#FFF" offset="100%"/></linearGradient><linearGradient x1="90.8%" y1="-2439.917%" x2="21.595%" y2="1106.113%" id="v"><stop stop-color="#E8EBFB" offset="0%"/><stop stop-color="#FFF" offset="100%"/></linearGradient><linearGradient x1="61.85%" y1="100%" x2="12.988%" y2="-76.866%" id="w"><stop stop-color="#FFF" offset="0%"/><stop stop-color="#FFF" offset="100%"/></linearGradient><path id="x" d="M30 6h212v132H30z"/><filter x="-12.5%" y="-11.6%" width="125.1%" height="123.2%" filterUnits="objectBoundingBox" id="y"><feGaussianBlur stdDeviation="10.352" in="SourceGraphic"/></filter><linearGradient x1="14.587%" y1="61.108%" x2="122.787%" y2="40.636%" id="A"><stop stop-color="#7D4FFF" offset="0%"/><stop stop-color="#7E7FFF" offset="100%"/></linearGradient><path d="M.943 23.29L125.963.052v283.924C46.24 237.504 4.567 143.604.943 23.29zm250.039 0c-3.624 120.314-45.297 214.214-125.02 260.687V.053l125.02 23.236z" id="z"/><linearGradient x1="13.484%" y1="3.302%" x2="65.125%" y2="78.841%" id="C"><stop stop-color="#CC82EA" stop-opacity=".586" offset="0%"/><stop stop-color="#7E7FFF" stop-opacity="0" offset="100%"/></linearGradient><linearGradient x1="14.587%" y1="61.108%" x2="111.394%" y2="50%" id="D"><stop stop-color="#FFF" stop-opacity="0" offset="0%"/><stop stop-color="#FFF" stop-opacity=".09" offset="100%"/></linearGradient><path d="M42.08 83C18.84 83 0 64.42 0 41.5S18.84 0 42.08 0s42.08 18.58 42.08 41.5S65.32 83 42.08 83zM30.282 32.702l6.452 9.494-2.103-7.12 7.574-11.031 12.343 18.151-2.104-7.12 1.543-2.235L71.66 58.672c4.488-7.819 6.031-17.593 2.805-27.785-3.226-10.193-11.08-18.152-21.18-21.224-23.564-7.54-45.304 9.774-45.304 31.975 0 6.143 1.683 11.868 4.488 16.755l17.813-25.691z" id="E"/><filter x="-2.4%" y="-2.4%" width="104.8%" height="104.8%" filterUnits="objectBoundingBox" id="F"><feGaussianBlur stdDeviation="1" in="SourceAlpha" result="shadowBlurInner1"/><feOffset dy="2" in="shadowBlurInner1" result="shadowOffsetInner1"/><feComposite in="shadowOffsetInner1" in2="SourceAlpha" operator="arithmetic" k2="-1" k3="1" result="shadowInnerInner1"/><feColorMatrix values="0 0 0 0 0.160362177 0 0 0 0 0.211404245 0 0 0 0 0.424372874 0 0 0 0.250679348 0" in="shadowInnerInner1"/></filter><filter x="-10.4%" y="-16.5%" width="120.8%" height="133%" filterUnits="objectBoundingBox" id="G"><feGaussianBlur stdDeviation="9.012" in="SourceGraphic"/></filter><linearGradient x1="86.666%" y1="7.367%" x2="46.21%" y2="74.346%" id="H"><stop stop-color="#E8EBFB" offset="0%"/><stop stop-color="#FFF" offset="100%"/></linearGradient><path d="M231.9 78.1C224.2 33 185.7 0 139.5 0 92.2 0 52.6 35.2 47.1 81.4 26.2 90.2 13 110 13 132c0 30.8 24.2 55 55 55h154c30.8 0 55-24.2 55-55 0-27.5-19.8-49.5-45.1-53.9z" id="I"/></defs><g transform="translate(7 5)" fill="none" fill-rule="evenodd"><circle fill="#F7F8FE" opacity=".4" cx="463" cy="350" r="350"/><circle fill="#EBECFB" opacity=".4" cx="463" cy="350" r="252"/><g transform="translate(86 310)"><use fill="url(#a)" xlink:href="#b"/><use fill="url(#c)" xlink:href="#b"/></g><g transform="translate(232 334)"><mask id="e" fill="#fff"><use xlink:href="#d"/></mask><use fill="#151922" xlink:href="#d"/><g mask="url(#e)"><path d="M0 0h32v32H0z" fill="#2ACCCC"/><path fill="#FFF" opacity=".6" d="M0 0h32v32H0z"/></g></g><g transform="translate(264 334)"><mask id="g" fill="#fff"><use xlink:href="#f"/></mask><use fill="#151922" xlink:href="#f"/><g mask="url(#g)"><path d="M0 0h32v32H0z" fill="#2ACCCC"/><path fill="#FFF" opacity=".6" d="M0 0h32v32H0z"/></g></g><g transform="translate(296 334)"><mask id="i" fill="#fff"><use xlink:href="#h"/></mask><use fill="#151922" xlink:href="#h"/><g mask="url(#i)"><path d="M0 0h32v32H0z" fill="#2ACCCC"/><path fill="#FFF" opacity=".6" d="M0 0h32v32H0z"/></g></g><g transform="translate(328 334)"><mask id="k" fill="#fff"><use xlink:href="#j"/></mask><use fill="#151922" xlink:href="#j"/><g mask="url(#k)"><path d="M0 0h32v32H0z" fill="#2ACCCC"/><path fill="#FFF" opacity=".6" d="M0 0h32v32H0z"/></g></g><g transform="translate(560 334)"><mask id="m" fill="#fff"><use xlink:href="#l"/></mask><use fill="#151922" xlink:href="#l"/><g mask="url(#m)"><path d="M0 0h32v32H0z" fill="#2ACCCC"/><path fill="#FFF" opacity=".6" d="M0 0h32v32H0z"/></g></g><g transform="translate(592 334)"><mask id="o" fill="#fff"><use xlink:href="#n"/></mask><use fill="#151922" xlink:href="#n"/><g mask="url(#o)"><path d="M0 0h32v32H0z" fill="#2ACCCC"/><path fill="#FFF" opacity=".6" d="M0 0h32v32H0z"/></g></g><g transform="translate(624 334)"><mask id="q" fill="#fff"><use xlink:href="#p"/></mask><use fill="#151922" xlink:href="#p"/><g mask="url(#q)"><path d="M0 0h32v32H0z" fill="#2ACCCC"/><path fill="#FFF" opacity=".6" d="M0 0h32v32H0z"/></g></g><g transform="translate(656 334)"><mask id="s" fill="#fff"><use xlink:href="#r"/></mask><use fill="#151922" xlink:href="#r"/><g mask="url(#s)"><path d="M0 0h32v32H0z" fill="#2ACCCC"/><path fill="#FFF" opacity=".6" d="M0 0h32v32H0z"/></g></g><path d="M252.36 151.846h9.563a6.077 6.077 0 0 1 0 12.154H30.077a6.077 6.077 0 1 1 0-12.154h9.562a17.003 17.003 0 0 1-.7-4.846V32c0-9.389 7.61-17 17-17H236.06c9.39 0 17 7.611 17 17v115c0 1.684-.245 3.31-.7 4.846z" fill="#33343D" opacity=".2" filter="url(#t)" transform="translate(0 270)"/><g transform="translate(0 270)"><path d="M5.506 0h212.988C221.535 0 224 2.444 224 5.46v137.08c0 3.016-2.465 5.46-5.506 5.46H5.506C2.465 148 0 145.556 0 142.54V5.46C0 2.443 2.465 0 5.506 0z" transform="translate(23.687)" fill="url(#u)"/><path d="M0 151.875V145h272v6.875c0 1.726-1.302 3.125-2.91 3.125H2.91C1.301 155 0 153.6 0 151.875z" fill="#E7E9F5"/><path d="M0 151v-5.79c0-.116.082-.21.183-.21h271.634c.1 0 .183.094.183.21V151H0z" fill="url(#v)"/><path d="M96 145h80l-1.515 3.447c-.15.339-.454.553-.787.553H98.302c-.333 0-.638-.214-.787-.553L96 145z" fill="#E5E6F1"/><use fill="url(#w)" xlink:href="#x"/></g><path d="M74.976 355h-3.888v-7.44L64.2 336.208h4.488l4.344 7.512 4.392-7.512h4.44l-6.888 11.184V355zm5.136-6.384c0-3.816 3.144-6.72 7.032-6.72 3.864 0 6.96 2.832 6.96 6.648 0 3.864-3.144 6.744-7.008 6.744-3.888 0-6.984-2.808-6.984-6.672zm3.84-.048c0 1.944 1.416 3.288 3.168 3.288 1.752 0 3.144-1.344 3.144-3.288 0-1.92-1.416-3.264-3.168-3.264-1.752 0-3.144 1.344-3.144 3.264zm16.44-6.384v7.152c0 1.416.648 2.448 2.208 2.448 1.584 0 2.304-1.128 2.304-2.448v-7.152h3.744V355h-3.696v-1.584h-.024c-1.296 1.872-3.216 1.848-3.576 1.848-3.192 0-4.704-2.4-4.704-5.04v-8.04h3.744zm19.632 0v3.672c-.504-.096-1.032-.096-1.2-.096-1.8 0-3.048 1.248-3.048 3.624V355h-3.672v-12.816h3.552v1.872h.048c.696-1.464 1.992-2.016 3.312-2.016.288 0 .744.072 1.008.144zM137.04 355v-1.632h-.048c-1.2 1.752-3.12 1.872-3.984 1.872-3.72 0-6.096-3.216-6.096-6.672 0-3.24 2.472-6.624 6.144-6.624.744 0 2.52.144 3.84 1.704h.048v-8.184h3.72V355h-3.624zm0-6.432c0-1.92-1.416-3.24-3.168-3.24-1.752 0-3.168 1.32-3.168 3.24 0 1.944 1.416 3.288 3.168 3.288 1.752 0 3.168-1.344 3.168-3.288zm10.224-1.416h5.52c-.072-.936-.864-2.232-2.736-2.232-1.68 0-2.64 1.392-2.784 2.232zm9.216 2.472h-9.312c.24 1.608 1.608 2.52 3.168 2.52 1.08 0 2.28-.648 2.712-1.704l3.072 1.056c-.84 2.472-3.216 3.792-5.736 3.792-3.888 0-7.032-2.736-7.032-6.72 0-3.696 3.096-6.696 6.792-6.696 3.816 0 6.384 2.616 6.384 6.408 0 .456 0 .912-.048 1.344zm6 5.376l-5.184-12.816h3.96l3.168 8.544 3.168-8.544h3.96L166.296 355h-3.816zm10.656-17.28c0-1.296 1.056-2.328 2.304-2.328 1.32 0 2.352 1.032 2.352 2.328 0 1.272-1.032 2.304-2.352 2.304a2.32 2.32 0 0 1-2.304-2.304zm.456 4.464h3.768V355h-3.768v-12.816zm13.344 13.104c-4.032 0-6.888-2.856-6.888-6.672 0-3.792 3.048-6.72 6.984-6.72 2.664 0 5.568 1.44 6.216 4.368l-3.408 1.032c-.288-.96-1.272-1.968-2.88-1.968-1.656 0-3.072 1.2-3.072 3.24 0 1.896 1.248 3.264 3.096 3.264 1.632 0 2.592-1.008 2.952-1.992l3.408 1.032c-.816 2.952-3.648 4.416-6.408 4.416zm12-8.136h5.52c-.072-.936-.864-2.232-2.736-2.232-1.68 0-2.64 1.392-2.784 2.232zm9.216 2.472h-9.312c.24 1.608 1.608 2.52 3.168 2.52 1.08 0 2.28-.648 2.712-1.704l3.072 1.056c-.84 2.472-3.216 3.792-5.736 3.792-3.888 0-7.032-2.736-7.032-6.72 0-3.696 3.096-6.696 6.792-6.696 3.816 0 6.384 2.616 6.384 6.408 0 .456 0 .912-.048 1.344z" fill="#6279FD"/><path d="M2.18 53.222l123.783-21.866v267.791C47.029 255.417 5.768 166.437 2.18 53.222zm247.565 0c-3.588 113.215-44.849 202.194-123.782 245.925V31.357l123.782 21.865z" fill="#33343D" opacity=".2" filter="url(#y)" transform="translate(334 202)"/><g transform="translate(334 202)"><mask id="B" fill="#fff"><use xlink:href="#z"/></mask><use fill-opacity=".5" fill="url(#A)" xlink:href="#z"/><g mask="url(#B)"><path fill="#151922" d="M-26.212-10.453h306v301h-306z"/><path fill="#FFF" opacity=".15" d="M-26.212-10.453h306v301h-306z"/></g><path d="M.943 23.29L125.963.052v283.924C46.24 237.504 4.567 143.604.943 23.29zm250.039 0c-3.624 120.314-45.297 214.214-125.02 260.687V.053l125.02 23.236z" fill-opacity=".5" fill="url(#C)" mask="url(#B)"/><path d="M.943 23.29L125.963.052v283.924C46.24 237.504 4.567 150.608.943 23.29z" fill="url(#D)" mask="url(#B)"/></g><g transform="translate(418 262)"><use fill-opacity=".4" fill="#C2C5DB" xlink:href="#E"/><use fill="#000" filter="url(#F)" xlink:href="#E"/></g><path d="M432.032 393l-9.056-25.056h5.6l6.496 19.04 6.528-19.04h5.504L438.016 393h-5.984zm36.736-17.024c0 5.536-3.904 8.192-9.152 8.192h-3.936V393h-5.184v-25.056h9.312c5.024 0 8.96 2.72 8.96 8.032zm-5.216.128c0-2.432-2.048-3.264-4.192-3.264h-3.68v6.496h3.712c2.048 0 4.16-.896 4.16-3.232zM489.28 393l-11.52-17.28V393h-5.12v-25.056h5.92l10.88 16.352v-16.352h5.12V393h-5.28z" fill="#FFF"/><g fill-rule="nonzero" transform="translate(650 240)"><path d="M215.583 103.494C208 63.941 170.083 35 124.583 35 78 35 39 65.87 33.583 106.388 13 114.106 0 131.471 0 150.765 0 177.776 23.833 199 54.167 199h151.666C236.167 199 260 177.776 260 150.765c0-24.118-19.5-43.412-44.417-47.27z" fill="#33343D" opacity=".2" filter="url(#G)"/><use fill="url(#H)" xlink:href="#I"/></g><path d="M746.392 337.208h3.888V356h-3.888v-18.792zM762.496 356v-7.104c0-1.44-.696-2.496-2.232-2.496-1.584 0-2.304 1.176-2.304 2.496V356h-3.744v-12.816h3.72v1.68h.024c.984-1.728 3.12-1.92 3.624-1.92 3.264 0 4.632 2.448 4.632 5.088V356h-3.72zm11.928-9.576v4.872c0 .984.552 1.632 1.8 1.632.552 0 .648-.024 1.32-.096v3.048c-.864.264-1.8.288-2.232.288-3.96 0-4.632-2.592-4.632-4.68v-5.064h-2.496v-3.24h2.544v-4.008h3.696v4.008h3.168v3.24h-3.168zm8.928 1.728h5.52c-.072-.936-.864-2.232-2.736-2.232-1.68 0-2.64 1.392-2.784 2.232zm9.216 2.472h-9.312c.24 1.608 1.608 2.52 3.168 2.52 1.08 0 2.28-.648 2.712-1.704l3.072 1.056c-.84 2.472-3.216 3.792-5.736 3.792-3.888 0-7.032-2.736-7.032-6.72 0-3.696 3.096-6.696 6.792-6.696 3.816 0 6.384 2.616 6.384 6.408 0 .456 0 .912-.048 1.344zm10.632-7.44v3.672c-.504-.096-1.032-.096-1.2-.096-1.8 0-3.048 1.248-3.048 3.624V356h-3.672v-12.816h3.552v1.872h.048c.696-1.464 1.992-2.016 3.312-2.016.288 0 .744.072 1.008.144zM813.712 356v-7.104c0-1.44-.696-2.496-2.232-2.496-1.584 0-2.304 1.176-2.304 2.496V356h-3.744v-12.816h3.72v1.68h.024c.984-1.728 3.12-1.92 3.624-1.92 3.264 0 4.632 2.448 4.632 5.088V356h-3.72zm10.176-7.848h5.52c-.072-.936-.864-2.232-2.736-2.232-1.68 0-2.64 1.392-2.784 2.232zm9.216 2.472h-9.312c.24 1.608 1.608 2.52 3.168 2.52 1.08 0 2.28-.648 2.712-1.704l3.072 1.056c-.84 2.472-3.216 3.792-5.736 3.792-3.888 0-7.032-2.736-7.032-6.72 0-3.696 3.096-6.696 6.792-6.696 3.816 0 6.384 2.616 6.384 6.408 0 .456 0 .912-.048 1.344zm7.44-4.2v4.872c0 .984.552 1.632 1.8 1.632.552 0 .648-.024 1.32-.096v3.048c-.864.264-1.8.288-2.232.288-3.96 0-4.632-2.592-4.632-4.68v-5.064h-2.496v-3.24h2.544v-4.008h3.696v4.008h3.168v3.24h-3.168z" fill="#6279FD"/></g></svg>